<svg width="560" height="360" viewBox="0 0 560 360" fill="none" xmlns="http://www.w3.org/2000/svg">
  <path d="M64 38V64H60V38H86V42H64ZM496 38V64H492V42H470V38H496ZM64 322H86V318H64V296H60V322H86ZM496 322H470V318H492V296H496V322H470Z" stroke="#F5C542" stroke-width="2"/>
  <path d="M84 40V320M108 40V320M132 40V320M156 40V320M180 40V320M204 40V320M228 40V320M252 40V320M276 40V320M300 40V320M324 40V320M348 40V320M372 40V320M396 40V320M420 40V320M444 40V320M468 40V320" stroke="#171C22" stroke-width="1"/>
  <path d="M60 60H496M60 84H496M60 108H496M60 132H496M60 156H496M60 180H496M60 204H496M60 228H496M60 252H496M60 276H496M60 300H496" stroke="#171C22" stroke-width="1"/>
  <path d="M20 180H60M496 180H540M280 20V60M280 300V340" stroke="#4A4F57" stroke-width="1.6"/>
  <circle cx="280" cy="180" r="3.8" fill="#4A4F57"/>
  <circle cx="20" cy="180" r="6" stroke="#4A4F57" stroke-width="1.4"/>
  <circle cx="540" cy="180" r="6" stroke="#4A4F57" stroke-width="1.4"/>
  <path d="M76 76H88M82 70V82M468 76H480M474 70V82M76 284H88M82 278V290M468 284H480M474 278V290" stroke="#4A4F57" stroke-width="1.4"/>
  <path d="M140 282V78H216L280 142L344 78H420V282H384V128L280 232L176 128V282H140Z" stroke="#F2EEE5" stroke-width="3" stroke-linejoin="miter"/>
  <path d="M184 282V136L232 184L280 232L328 184L376 136V282" stroke="#F2EEE5" stroke-width="2" stroke-linejoin="miter"/>
  <path d="M188 100V252M372 100V252M188 100H204M372 100H356M188 252H204M372 252H356" stroke="#6A717A" stroke-width="1.4"/>
  <circle cx="188" cy="100" r="7" stroke="#6A717A" stroke-width="1.4"/>
  <circle cx="372" cy="100" r="7" stroke="#6A717A" stroke-width="1.4"/>
  <circle cx="280" cy="142" r="6.5" stroke="#6A717A" stroke-width="1.4"/>
  <circle cx="280" cy="142" r="2.4" fill="#F5C542"/>
  <path d="M188 100L280 142L372 100M232 154L280 190L328 154" stroke="#6A717A" stroke-width="1.2" stroke-dasharray="5 5"/>
  <path d="M220 190L232 178L244 190L232 202L220 190Z" stroke="#6A717A" stroke-width="1.2"/>
  <path d="M170 248L176 242L182 248L176 254L170 248ZM378 248L384 242L390 248L384 254L378 248Z" fill="#6A717A"/>
</svg>
